# Blender v3.2.0 OBJ File: 'buitenhoek.blend'
# www.blender.org
mtllib buitenhoek.mtl
o Cube
v 1.000000 4.000000 -1.000000
v 1.000000 0.000000 -1.000000
v 1.000000 4.000000 0.000000
v 1.000000 0.000000 0.000000
v 0.000000 4.000000 -1.000000
v 0.000000 0.000000 -1.000000
v 0.000000 4.000000 0.000000
v 0.000000 0.000000 0.000000
vt 0.749950 0.834087
vt 1.000704 0.834087
vt 1.000704 1.000704
vt 0.749950 1.000704
vt 0.500000 0.167519
vt 0.500000 0.834087
vt 0.249246 0.834087
vt 0.249246 0.167519
vt -0.000704 0.834087
vt -0.000704 0.167519
vt 1.000704 0.167519
vt 0.749950 0.167519
vt 0.749950 0.000902
vt 1.000704 0.000902
vn 0.0000 1.0000 0.0000
vn 0.0000 0.0000 1.0000
vn -1.0000 0.0000 0.0000
vn 0.0000 -1.0000 0.0000
vn 1.0000 0.0000 0.0000
vn 0.0000 0.0000 -1.0000
usemtl Material
s off
f 1/1/1 5/2/1 7/3/1 3/4/1
f 4/5/2 3/6/2 7/7/2 8/8/2
f 8/8/3 7/7/3 5/9/3 6/10/3
f 6/11/4 2/12/4 4/13/4 8/14/4
f 2/12/5 1/1/5 3/6/5 4/5/5
f 6/11/6 5/2/6 1/1/6 2/12/6
