# Blender v3.2.0 OBJ File: 'ButtonHidden.blend'
# www.blender.org
mtllib ButtonHidden.mtl
o Cube_Cube.001
v -0.500000 -0.375000 0.187500
v -0.500000 0.375000 0.187500
v -0.500000 -0.375000 -0.187500
v -0.500000 0.375000 -0.187500
v 0.562500 -0.375000 0.187500
v 0.562500 0.375000 0.187500
v 0.562500 -0.375000 -0.187500
v 0.562500 0.375000 -0.187500
vt 0.125000 0.625000
vt 0.125000 0.875000
vt 0.000000 0.875000
vt 0.000000 0.625000
vt 0.958333 0.625000
vt 0.958333 0.875000
vt 0.604167 0.875000
vt 0.604167 0.625000
vt 0.479167 0.875000
vt 0.479167 0.625000
vt 0.125000 0.500000
vt 0.479167 0.500000
vt 0.479167 1.000000
vt 0.125000 1.000000
vn -1.0000 0.0000 0.0000
vn 0.0000 0.0000 -1.0000
vn 1.0000 0.0000 0.0000
vn 0.0000 0.0000 1.0000
vn 0.0000 -1.0000 0.0000
vn 0.0000 1.0000 0.0000
usemtl Material
s off
f 1/1/1 2/2/1 4/3/1 3/4/1
f 3/5/2 4/6/2 8/7/2 7/8/2
f 7/8/3 8/7/3 6/9/3 5/10/3
f 5/10/4 6/9/4 2/2/4 1/1/4
f 3/11/5 7/12/5 5/10/5 1/1/5
f 8/13/6 4/14/6 2/2/6 6/9/6
