# Blender 3.3.1
# www.blender.org
mtllib Code pillar mid.mtl
o Pillar
v -0.500000 -0.625000 0.500000
v -0.500000 1.625000 0.500000
v -0.500000 -0.625000 -0.500000
v -0.500000 1.625000 -0.500000
v 0.500000 -0.625000 0.500000
v 0.500000 1.625000 0.500000
v 0.500000 -0.625000 -0.500000
v 0.500000 1.625000 -0.500000
vn -1.0000 -0.0000 -0.0000
vn -0.0000 -0.0000 -1.0000
vn 1.0000 -0.0000 -0.0000
vn -0.0000 -0.0000 1.0000
vn -0.0000 -1.0000 -0.0000
vn -0.0000 1.0000 -0.0000
vt 1.000000 0.437500
vt 0.000000 0.437500
vt -0.000000 0.421875
vt 1.000000 1.000000
vt 0.000000 1.000000
vt 0.250000 0.171875
vt 0.750000 0.437500
vt -0.000000 0.171875
vt 0.750000 1.000000
vt 0.250000 0.421875
vt 0.250000 0.437500
vt 0.250000 0.421875
vt 0.250000 1.000000
vt 0.500000 0.171875
vt 0.500000 0.437500
vt 0.250000 0.171875
vt 0.500000 1.000000
vt 0.500000 0.421875
s 0
usemtl Material.003
f 1/1/1 2/4/1 4/9/1 3/7/1
f 3/7/2 4/9/2 8/17/2 7/15/2
f 7/15/3 8/17/3 6/13/3 5/11/3
f 5/11/4 6/13/4 2/5/4 1/2/4
f 3/8/5 7/16/5 5/12/5 1/3/5
f 8/18/6 4/10/6 2/6/6 6/14/6
