# Blender 3.3.1
# www.blender.org
mtllib Code pillar bottom.mtl
o Bounds
v 0.812500 -0.625000 -0.812500
v 0.812500 -1.000000 -0.812500
v 0.812500 -0.625000 0.812500
v 0.812500 -1.000000 0.812500
v -0.812500 -0.625000 -0.812500
v -0.812500 -1.000000 -0.812500
v -0.812500 -0.625000 0.812500
v -0.812500 -1.000000 0.812500
vn -0.0000 1.0000 -0.0000
vn -0.0000 -0.0000 1.0000
vn -1.0000 -0.0000 -0.0000
vn -0.0000 -1.0000 -0.0000
vn 1.0000 -0.0000 -0.0000
vn -0.0000 -0.0000 -1.0000
vt 0.406250 0.781250
vt 0.812500 1.000000
vt 0.812500 0.890625
vt 0.406250 0.375000
vt 0.812500 0.906250
vt 0.812500 0.796875
vt 0.406250 0.375000
vt 0.406250 1.000000
vt 0.406250 0.781250
vt 0.406250 0.906250
vt 0.000000 0.781250
vt 0.406250 0.890625
vt 0.812500 0.375000
vt 0.406250 0.796875
vt 0.000000 0.375000
vt 0.000000 1.000000
vt 0.000000 0.890625
vt 0.000000 0.906250
vt 0.000000 0.796875
vt 0.812500 0.781250
s 0
usemtl Material
f 1/1/1 5/11/1 7/15/1 3/7/1
f 4/10/2 3/8/2 7/16/2 8/18/2
f 8/19/3 7/17/3 5/12/3 6/14/3
f 6/13/4 2/4/4 4/9/4 8/20/4
f 2/5/5 1/2/5 3/8/5 4/10/5
f 6/14/6 5/12/6 1/3/6 2/6/6
