# Blender v3.2.0 OBJ File: 'DoorFrame.blend'
# www.blender.org
mtllib DoorFrame.mtl
o Cube_Cube.001
v -3.000000 0.000000 0.500000
v -3.000000 4.000000 0.500000
v -3.000000 0.000000 -0.500000
v -3.000000 4.000000 -0.500000
v -1.000000 0.000000 0.500000
v -1.000000 4.000000 0.500000
v -1.000000 0.000000 -0.500000
v -1.000000 4.000000 -0.500000
v -1.000000 3.000000 -0.500000
v -1.000000 3.000000 0.500000
v 0.000000 3.000000 -0.500000
v 1.000000 4.000000 -0.500000
v 1.000000 4.000000 0.500000
v 1.000000 3.000000 -0.500000
v 1.000000 3.000000 0.500000
v 1.000000 0.000000 -0.500000
v 1.000000 0.000000 0.500000
v 3.000000 0.000000 -0.500000
v 3.000000 0.000000 0.500000
v 3.000000 4.000000 -0.500000
v 3.000000 4.000000 0.500000
vt 0.250000 0.583416
vt 0.250000 0.916584
vt 0.166708 0.916584
vt 0.166708 0.583416
vt 0.000124 0.916584
vt 0.000124 0.833292
vt 0.000124 0.583416
vt 0.250000 0.500124
vt 0.416584 0.500124
vt 0.416584 0.583416
vt 0.416584 0.999876
vt 0.250000 0.999876
vt 0.416584 0.916584
vt 0.499876 0.583416
vt 0.499876 0.833292
vt 0.416584 0.833292
vt 0.000000 0.250000
vt 0.000000 0.333333
vt 0.166667 0.333333
vt 0.166667 0.250000
vt 0.000000 0.416667
vt 0.000000 0.500000
vt 0.166667 0.500000
vt 0.166667 0.416667
vt 0.583416 0.833292
vt 0.500124 0.833292
vt 0.500124 0.583416
vt 0.583416 0.583416
vt 0.583416 0.500124
vt 0.750000 0.500124
vt 0.750000 0.583416
vt 0.833292 0.583416
vt 0.833292 0.916584
vt 0.750000 0.916584
vt 0.583416 0.916584
vt 0.750000 0.999876
vt 0.583416 0.999876
vt 0.000000 0.166667
vt 0.166667 0.166667
vt 0.999876 0.833292
vt 0.999876 0.916584
vt 0.999876 0.583416
vn -1.0000 0.0000 0.0000
vn 0.0000 0.0000 -1.0000
vn 0.0000 -1.0000 0.0000
vn 0.0000 1.0000 0.0000
vn 1.0000 0.0000 0.0000
vn 0.0000 0.0000 1.0000
usemtl Material.001
s off
f 1/1/1 2/2/1 4/3/1 3/4/1
f 3/4/2 4/3/2 8/5/2 9/6/2 7/7/2
f 3/8/3 7/9/3 5/10/3 1/1/3
f 8/11/4 4/12/4 2/2/4 6/13/4
f 7/14/5 9/15/5 10/16/5 5/10/5
f 5/10/6 10/16/6 6/13/6 2/2/6 1/1/6
f 8/17/4 6/18/4 13/19/4 12/20/4
f 10/21/3 9/22/3 14/23/3 15/24/3
f 15/25/1 14/26/1 16/27/1 17/28/1
f 17/28/3 16/29/3 18/30/3 19/31/3
f 19/31/5 18/32/5 20/33/5 21/34/5
f 13/35/4 21/34/4 20/36/4 12/37/4
f 10/21/6 15/24/6 13/19/6 6/18/6
f 17/28/6 19/31/6 21/34/6 13/35/6 15/25/6
f 9/38/2 8/17/2 12/20/2 14/39/2
f 14/40/2 12/41/2 20/33/2 18/32/2 16/42/2
