# Blender v3.2.0 OBJ File: 'Door.blend'
# www.blender.org
mtllib Door.mtl
o Cube
v 1.000000 3.000000 -0.375000
v 1.000000 0.000000 -0.375000
v 1.000000 3.000000 0.375000
v 1.000000 0.000000 0.375000
v -1.000000 3.000000 -0.375000
v -1.000000 0.000000 -0.375000
v -1.000000 3.000000 0.375000
v -1.000000 0.000000 0.375000
vt 0.500000 1.000000
vt 0.136364 1.000000
vt 0.136364 0.863636
vt 0.500000 0.863636
vt 0.500000 0.318182
vt 0.136364 0.318182
vt -0.000000 0.863636
vt -0.000000 0.318182
vt 0.136364 0.181818
vt 0.500000 0.181818
vt 0.636364 0.318182
vt 0.636364 0.863636
vt 1.000000 0.318182
vt 1.000000 0.863636
vn 0.0000 1.0000 0.0000
vn 0.0000 0.0000 1.0000
vn -1.0000 0.0000 0.0000
vn 0.0000 -1.0000 0.0000
vn 1.0000 0.0000 0.0000
vn 0.0000 0.0000 -1.0000
usemtl Material
s off
f 1/1/1 5/2/1 7/3/1 3/4/1
f 4/5/2 3/4/2 7/3/2 8/6/2
f 8/6/3 7/3/3 5/7/3 6/8/3
f 6/9/4 2/10/4 4/5/4 8/6/4
f 2/11/5 1/12/5 3/4/5 4/5/5
f 6/13/6 5/14/6 1/12/6 2/11/6
