# Blender v3.2.0 OBJ File: 'FloorTile.blend'
# www.blender.org
mtllib FloorTile.mtl
o Cube
v 1.000000 -0.125000 -1.000000
v 1.000000 0.125000 -1.000000
v 1.000000 -0.125000 1.000000
v 1.000000 0.125000 1.000000
v -1.000000 -0.125000 -1.000000
v -1.000000 0.125000 -1.000000
v -1.000000 -0.125000 1.000000
v -1.000000 0.125000 1.000000
vt 0.555556 0.900000
vt 1.000000 0.900000
vt 1.000000 0.100000
vt 0.555556 0.100000
vt 0.055556 0.900000
vt 0.055556 0.100000
vt 0.000000 0.100000
vt 0.000000 0.900000
vt 0.500000 0.100000
vt 0.500000 0.000000
vt 0.055556 0.000000
vt 0.500000 0.900000
vt 0.055556 1.000000
vt 0.500000 1.000000
vn 0.0000 -1.0000 0.0000
vn 0.0000 0.0000 1.0000
vn -1.0000 0.0000 0.0000
vn 0.0000 1.0000 0.0000
vn 1.0000 0.0000 0.0000
vn 0.0000 0.0000 -1.0000
usemtl Material
s off
f 1/1/1 3/2/1 7/3/1 5/4/1
f 4/5/2 8/6/2 7/7/2 3/8/2
f 8/6/3 6/9/3 5/10/3 7/11/3
f 6/9/4 8/6/4 4/5/4 2/12/4
f 2/12/5 4/5/5 3/13/5 1/14/5
f 6/9/6 2/12/6 1/1/6 5/4/6
