# Blender v3.2.0 OBJ File: 'Halfslab.blend'
# www.blender.org
mtllib Halfslab.mtl
o Cube_Cube.001
v -1.000000 0.000000 1.000000
v -1.000000 1.000000 1.000000
v -1.000000 0.000000 -1.000000
v -1.000000 1.000000 -1.000000
v 1.000000 0.000000 1.000000
v 1.000000 1.000000 1.000000
v 1.000000 0.000000 -1.000000
v 1.000000 1.000000 -1.000000
vt 0.250000 0.625000
vt 0.250000 0.750000
vt 0.500000 0.750000
vt 0.500000 0.625000
vt 0.750000 0.750000
vt 0.750000 0.625000
vt 1.000000 0.750000
vt 1.000000 0.625000
vt 0.000000 0.625000
vt 0.000000 0.750000
vt 0.500000 0.375000
vt 0.250000 0.375000
vt 0.500000 1.000000
vt 0.250000 1.000000
vn -1.0000 0.0000 0.0000
vn 0.0000 0.0000 -1.0000
vn 1.0000 0.0000 0.0000
vn 0.0000 0.0000 1.0000
vn 0.0000 -1.0000 0.0000
vn 0.0000 1.0000 0.0000
usemtl Material
s off
f 1/1/1 2/2/1 4/3/1 3/4/1
f 3/4/2 4/3/2 8/5/2 7/6/2
f 7/6/3 8/5/3 6/7/3 5/8/3
f 5/9/4 6/10/4 2/2/4 1/1/4
f 3/4/5 7/11/5 5/12/5 1/1/5
f 8/13/6 4/3/6 2/2/6 6/14/6
