# Blender 3.3.1
# www.blender.org
mtllib HalfWall.mtl
o Cube.001
v -1.000000 1.000000 0.500000
v -1.000000 -1.000000 0.500000
v -1.000000 1.000000 -0.500000
v -1.000000 -1.000000 -0.500000
v 1.000000 1.000000 0.500000
v 1.000000 -1.000000 0.500000
v 1.000000 1.000000 -0.500000
v 1.000000 -1.000000 -0.500000
vn -0.0000 1.0000 -0.0000
vn -0.0000 -0.0000 -1.0000
vn 1.0000 -0.0000 -0.0000
vn -0.0000 -1.0000 -0.0000
vn -1.0000 -0.0000 -0.0000
vn -0.0000 -0.0000 1.0000
vt 0.250000 0.750000
vt 0.250000 0.250000
vt 0.250000 1.000000
vt 0.750000 0.750000
vt 0.000000 0.750000
vt 0.750000 0.250000
vt 0.250000 0.000000
vt 0.000000 0.250000
vt 0.750000 0.750000
vt 0.750000 0.250000
vt 0.750000 1.000000
vt 0.250000 0.750000
vt 1.000000 0.750000
vt 0.250000 0.250000
vt 1.000000 0.250000
vt 0.750000 0.000000
s 0
usemtl Material
f 1/1/1 5/9/1 7/11/1 3/3/1
f 4/6/2 3/4/2 7/12/2 8/14/2
f 8/15/3 7/13/3 5/9/3 6/10/3
f 6/10/4 2/2/4 4/7/4 8/16/4
f 2/2/5 1/1/5 3/5/5 4/8/5
f 6/10/6 5/9/6 1/1/6 2/2/6
