# Blender v3.2.0 OBJ File: 'hoekblend.blend'
# www.blender.org
mtllib hoekblend.mtl
o Cube_Cube.003
v -1.000000 0.000000 0.000000
v -1.000000 4.000000 0.000000
v -1.000000 0.000000 -1.000000
v -1.000000 4.000000 -1.000000
v 0.000000 0.000000 0.000000
v 0.000000 4.000000 0.000000
v 0.000000 0.000000 -1.000000
v 0.000000 4.000000 -1.000000
v 1.000000 4.000000 -1.000000
v 1.000000 0.000000 -1.000000
v 1.000000 0.000000 0.000000
v 1.000000 4.000000 0.000000
v -1.000000 0.000000 1.000000
v -1.000000 4.000000 1.000000
v 0.000000 4.000000 1.000000
v 0.000000 0.000000 1.000000
vt 0.125000 0.166667
vt 0.125000 0.833333
vt 0.000000 0.833333
vt 0.000000 0.166667
vt 1.000000 0.166667
vt 1.000000 0.833333
vt 0.875000 0.833333
vt 0.875000 0.166667
vt 0.500000 1.000000
vt 0.500000 0.833333
vt 0.625000 0.833333
vt 0.625000 1.000000
vt 0.250000 0.166667
vt 0.250000 0.833333
vt 0.875000 0.000000
vt 1.000000 0.000000
vt 1.000000 1.000000
vt 0.875000 1.000000
vt 0.750000 0.166667
vt 0.750000 0.833333
vt 0.625000 0.166667
vt 0.500000 0.166667
vt 0.500000 0.000000
vt 0.625000 0.000000
vt 0.375000 0.166667
vt 0.375000 0.833333
vt 0.500000 0.000000
vt 0.375000 0.000000
vt 0.500000 1.000000
vt 0.375000 1.000000
vn -1.0000 0.0000 0.0000
vn 0.0000 0.0000 -1.0000
vn 0.0000 1.0000 0.0000
vn 0.0000 -1.0000 0.0000
vn 1.0000 0.0000 0.0000
vn 0.0000 0.0000 1.0000
usemtl Material.002
s off
f 1/1/1 2/2/1 4/3/1 3/4/1
f 3/5/2 4/6/2 8/7/2 7/8/2
f 8/9/3 6/10/3 12/11/3 9/12/3
f 2/2/1 1/1/1 13/13/1 14/14/1
f 3/5/4 7/8/4 5/15/4 1/16/4
f 8/7/3 4/6/3 2/17/3 6/18/3
f 10/19/5 9/20/5 12/11/5 11/21/5
f 7/8/2 8/7/2 9/20/2 10/19/2
f 6/10/6 5/22/6 11/21/6 12/11/6
f 5/22/4 7/23/4 10/24/4 11/21/4
f 16/25/6 15/26/6 14/14/6 13/13/6
f 1/27/4 5/22/4 16/25/4 13/28/4
f 6/10/3 2/29/3 14/30/3 15/26/3
f 5/22/5 6/10/5 15/26/5 16/25/5
