# Blender 3.3.1
# www.blender.org
mtllib LeverHandle.mtl
o Cube.001
v -0.125000 1.000000 0.312500
v -0.125000 1.000000 0.062500
v -0.125000 0.000000 0.312500
v -0.125000 0.000000 0.062500
v 0.125000 1.000000 0.312500
v 0.125000 1.000000 0.062500
v 0.125000 0.000000 0.312500
v 0.125000 0.000000 0.062500
vn -1.0000 -0.0000 -0.0000
vn -0.0000 -1.0000 -0.0000
vn 1.0000 -0.0000 -0.0000
vn -0.0000 1.0000 -0.0000
vn -0.0000 -0.0000 1.0000
vn -0.0000 -0.0000 -1.0000
vt 0.312500 0.812500
vt 0.125000 1.000000
vt 0.375000 0.812500
vt 0.187500 0.812500
vt 0.125000 0.875000
vt 0.687500 0.812500
vt 0.312500 0.312500
vt 0.187500 1.000000
vt 0.375000 0.312500
vt 0.187500 0.312500
vt 0.187500 0.875000
vt 0.687500 0.312500
vt 0.000000 0.812500
vt 0.000000 1.000000
vt 0.500000 0.812500
vt 0.125000 0.812500
vt 0.000000 0.875000
vt 0.562500 0.812500
vt 0.312500 1.000000
vt 0.000000 0.312500
vt 0.500000 0.312500
vt 0.312500 0.875000
vt 0.125000 0.312500
vt 0.562500 0.312500
s 0
usemtl Material.003
f 1/1/1 2/4/1 4/10/1 3/7/1
f 3/8/2 4/11/2 8/22/2 7/19/2
f 7/20/3 8/23/3 6/16/3 5/13/3
f 5/14/4 6/17/4 2/5/4 1/2/4
f 3/9/5 7/21/5 5/15/5 1/3/5
f 8/24/6 4/12/6 2/6/6 6/18/6
