# Blender 3.3.1
# www.blender.org
mtllib LeverHolder.mtl
o Cube
v -0.125000 -0.625000 0.125000
v -0.125000 0.625000 0.125000
v 0.125000 -0.625000 0.125000
v 0.125000 0.625000 0.125000
v -0.250000 -0.625000 -0.125000
v -0.250000 0.625000 -0.125000
v 0.250000 0.625000 -0.125000
v 0.250000 -0.625000 -0.125000
v -0.125000 -0.625000 0.250000
v -0.125000 0.625000 0.250000
v 0.125000 0.625000 0.250000
v 0.125000 -0.625000 0.250000
v -0.250000 -0.625000 0.250000
v -0.250000 0.625000 0.250000
v 0.250000 0.625000 0.250000
v 0.250000 -0.625000 0.250000
vn -0.0000 -0.0000 -1.0000
vn -1.0000 -0.0000 -0.0000
vn -0.0000 -0.0000 1.0000
vn 1.0000 -0.0000 -0.0000
vn -0.0000 -1.0000 -0.0000
vn -0.0000 1.0000 -0.0000
vt 0.312500 0.125000
vt 0.312500 0.187500
vt 0.312500 0.875000
vt 0.312500 0.812500
vt 0.437500 0.125000
vt 0.437500 0.187500
vt 0.437500 0.875000
vt 0.437500 0.812500
vt 1.000000 0.187500
vt 0.000000 0.187500
vt 0.250000 0.000000
vt 1.000000 0.812500
vt 0.000000 0.812500
vt 0.250000 1.000000
vt 0.750000 0.812500
vt 0.500000 1.000000
vt 0.750000 0.187500
vt 0.500000 0.000000
vt 0.312500 0.187500
vt 0.250000 0.187500
vt 0.312500 0.812500
vt 0.250000 0.812500
vt 0.437500 0.812500
vt 0.498047 0.810547
vt 0.500000 0.812500
vt 0.437500 0.187500
vt 0.498047 0.185547
vt 0.500000 0.187500
vt 0.250000 0.187500
vt 0.187500 0.187500
vt 0.250000 0.812500
vt 0.187500 0.812500
vt 0.562500 0.812500
vt 0.500000 0.812500
vt 0.560547 0.810547
vt 0.562500 0.187500
vt 0.500000 0.187500
vt 0.560547 0.185547
s 0
usemtl Material.001
f 8/17/1 5/9/1 6/12/1 7/15/1
f 5/10/2 13/30/2 14/32/2 6/13/2
f 3/6/3 4/8/3 2/4/3 1/2/3
f 7/15/4 15/33/4 16/36/4 8/17/4
f 5/11/5 8/18/5 16/37/5 12/26/5 3/5/5 1/1/5 9/19/5 13/29/5
f 7/16/6 6/14/6 14/31/6 10/21/6 2/3/6 4/7/6 11/23/6 15/34/6
f 11/24/3 12/27/3 16/38/3 15/35/3
f 9/20/3 10/22/3 14/32/3 13/30/3
f 4/8/2 3/6/2 12/28/2 11/25/2
f 1/2/4 2/4/4 10/22/4 9/20/4
