# Blender v3.2.0 OBJ File: 'Pilar.blend'
# www.blender.org
mtllib Pilar.mtl
o Cube_Cube.001
v -0.875000 0.000000 0.875000
v -0.625000 0.250000 0.625000
v -0.875000 0.000000 -0.875000
v -0.625000 0.250000 -0.625000
v 0.875000 0.000000 0.875000
v 0.625000 0.250000 0.625000
v 0.875000 0.000000 -0.875000
v 0.625000 0.250000 -0.625000
v -0.875000 0.250000 0.875000
v -0.875000 0.250000 -0.875000
v 0.875000 0.250000 -0.875000
v 0.875000 0.250000 0.875000
v -0.875000 4.000000 0.875000
v -0.625000 3.750000 0.625000
v -0.875000 4.000000 -0.875000
v -0.625000 3.750000 -0.625000
v 0.875000 4.000000 0.875000
v 0.625000 3.750000 0.625000
v 0.875000 4.000000 -0.875000
v 0.625000 3.750000 -0.625000
v -0.875000 3.750000 0.875000
v -0.875000 3.750000 -0.875000
v 0.875000 3.750000 -0.875000
v 0.875000 3.750000 0.875000
v 0.625000 3.750000 -0.875000
v -0.875000 3.750000 -0.625000
v -0.625000 3.750000 0.875000
v 0.875000 3.750000 0.625000
v 0.875000 0.250000 0.625000
v 0.625000 0.250000 -0.875000
v -0.625000 0.250000 0.875000
v -0.875000 0.250000 -0.625000
vt 0.281250 0.968750
vt 0.250000 0.968750
vt 0.250000 0.781250
vt 0.250000 0.750000
vt 0.281250 0.750000
vt 0.250000 0.718750
vt 0.062500 0.750000
vt 0.031250 0.750000
vt 0.031250 0.718750
vt 0.000000 0.750000
vt 0.031250 0.937500
vt 0.031250 0.968750
vt 0.000000 0.968750
vt 0.031250 1.000000
vt 0.218750 0.968750
vt 0.250000 1.000000
vt 0.500000 0.968750
vt 0.500000 0.750000
vt 0.281250 0.750000
vt 0.156250 0.687500
vt 0.156250 0.234375
vt 0.000000 0.234375
vt -0.000000 0.687500
vt 0.218750 0.937500
vt 0.218750 0.781250
vt 0.062500 0.937500
vt 0.062500 0.781250
vt 0.312500 0.687500
vt 0.312500 0.234375
vt 0.468750 0.687500
vt 0.468750 0.234375
vt 0.781250 0.968750
vt 0.781250 0.750000
vt 0.750000 0.750000
vt 0.750000 0.781250
vt 0.750000 0.968750
vt 0.750000 0.718750
vt 0.531250 0.718750
vt 0.531250 0.750000
vt 0.562500 0.750000
vt 0.500000 0.750000
vt 0.500000 0.968750
vt 0.531250 0.968750
vt 0.531250 0.937500
vt 0.531250 1.000000
vt 0.750000 1.000000
vt 0.718750 0.968750
vt 1.000000 0.750000
vt 1.000000 0.968750
vt 0.781250 0.968750
vt 0.781250 0.750000
vt 0.718750 0.781250
vt 0.718750 0.937500
vt 0.625000 0.687500
vt 0.625000 0.234375
vt 0.562500 0.781250
vt 0.562500 0.937500
vn -1.0000 -0.0000 0.0000
vn 0.0000 0.0000 -1.0000
vn 1.0000 -0.0000 0.0000
vn 0.0000 0.0000 1.0000
vn 0.0000 -1.0000 0.0000
vn 0.0000 1.0000 0.0000
usemtl Material.001
s off
f 1/1/1 9/2/1 32/3/1 10/4/1 3/5/1
f 3/6/2 10/4/2 30/7/2 11/8/2 7/9/2
f 7/10/3 11/8/3 29/11/3 12/12/3 5/13/3
f 5/14/4 12/12/4 31/15/4 9/2/4 1/16/4
f 3/17/5 7/18/5 5/19/5 1/1/5
f 20/20/2 8/21/2 4/22/2 16/23/2
f 31/15/6 2/24/6 4/25/6 32/3/6 9/2/6
f 6/26/6 2/24/6 31/15/6 12/12/6 29/11/6
f 32/3/6 4/25/6 8/27/6 30/7/6 10/4/6
f 18/28/3 6/29/3 8/21/3 20/20/3
f 14/30/4 2/31/4 6/29/4 18/28/4
f 13/32/1 15/33/1 22/34/1 26/35/1 21/36/1
f 15/37/2 19/38/2 23/39/2 25/40/2 22/34/2
f 19/41/3 17/42/3 24/43/3 28/44/3 23/39/3
f 17/45/4 13/46/4 21/36/4 27/47/4 24/43/4
f 15/48/6 13/49/6 17/50/6 19/51/6
f 26/35/5 16/52/5 14/53/5 27/47/5 21/36/5
f 29/11/6 11/8/6 30/7/6 8/27/6 6/26/6
f 16/54/1 4/55/1 2/31/1 14/30/1
f 25/40/5 20/56/5 16/52/5 26/35/5 22/34/5
f 27/47/5 14/53/5 18/57/5 28/44/5 24/43/5
f 28/44/5 18/57/5 20/56/5 25/40/5 23/39/5
