# Blender 3.3.1
# www.blender.org
mtllib pressure plate.mtl
o Cube
v -1.000000 0.000000 1.000000
v -1.000000 0.125000 1.000000
v -1.000000 0.000000 -1.000000
v -1.000000 0.125000 -1.000000
v 1.000000 0.000000 1.000000
v 1.000000 0.125000 1.000000
v 1.000000 0.000000 -1.000000
v 1.000000 0.125000 -1.000000
vn -1.0000 -0.0000 -0.0000
vn -0.0000 -0.0000 -1.0000
vn 1.0000 -0.0000 -0.0000
vn -0.0000 -0.0000 1.0000
vn -0.0000 -1.0000 -0.0000
vn -0.0000 1.0000 -0.0000
vt 0.041667 0.291667
vt 0.041667 0.250000
vt 0.791667 0.958333
vt 0.000000 0.291667
vt 0.041667 0.291667
vt 0.041667 0.958333
vt 0.708333 0.958333
vt 0.791667 0.875000
vt 0.000000 0.958333
vt 0.708333 1.000000
vt 0.041667 0.958333
vt 0.708333 0.958333
vt 0.708333 0.250000
vt 0.875000 0.958333
vt 0.750000 0.958333
vt 0.708333 0.291667
vt 0.041667 0.958333
vt 0.708333 0.291667
vt 0.875000 0.875000
vt 0.041667 1.000000
vt 0.750000 0.291667
vt 0.708333 0.958333
s 0
usemtl Material.001
f 1/1/1 2/4/1 4/9/1 3/6/1
f 3/7/2 4/10/2 8/20/2 7/17/2
f 7/18/3 8/21/3 6/15/3 5/12/3
f 5/13/4 6/16/4 2/5/4 1/2/4
f 3/8/5 7/19/5 5/14/5 1/3/5
f 8/22/6 4/11/6 2/5/6 6/16/6
