# Blender v3.2.0 OBJ File: 'Pushblock2x1x1.blend'
# www.blender.org
mtllib Pushblock2x1x1.mtl
o Cube
v 0.937500 0.937500 -1.937500
v 0.937500 -0.937500 -1.937500
v 0.937500 0.937500 1.937500
v 0.937500 -0.937500 1.937500
v -0.937500 0.937500 -1.937500
v -0.937500 -0.937500 -1.937500
v -0.937500 0.937500 1.937500
v -0.937500 -0.937500 1.937500
vt 0.429907 0.859813
vt 0.429907 1.000000
vt 0.140187 1.000000
vt 0.140187 0.859813
vt 0.140187 0.719626
vt 0.000000 0.859813
vt 0.000000 0.719626
vt 0.859813 0.719626
vt 0.859813 0.859813
vt 0.570093 0.859813
vt 0.570093 0.719626
vt 0.429907 0.579439
vt 0.429907 0.719626
vt 0.140187 0.579439
vn 0.0000 1.0000 0.0000
vn 0.0000 0.0000 1.0000
vn -1.0000 0.0000 0.0000
vn 0.0000 -1.0000 0.0000
vn 1.0000 0.0000 0.0000
vn 0.0000 0.0000 -1.0000
usemtl Material
s off
f 1/1/1 5/2/1 7/3/1 3/4/1
f 4/5/2 3/4/2 7/6/2 8/7/2
f 8/8/3 7/9/3 5/10/3 6/11/3
f 6/12/4 2/13/4 4/5/4 8/14/4
f 2/13/5 1/1/5 3/4/5 4/5/5
f 6/11/6 5/10/6 1/1/6 2/13/6
