# Blender v3.2.0 OBJ File: 'Pushblock.blend'
# www.blender.org
mtllib Pushblock.mtl
o Cube
v 0.937500 0.937500 -0.937500
v 0.937500 -0.937500 -0.937500
v 0.937500 0.937500 0.937500
v 0.937500 -0.937500 0.937500
v -0.937500 0.937500 -0.937500
v -0.937500 -0.937500 -0.937500
v -0.937500 0.937500 0.937500
v -0.937500 -0.937500 0.937500
v 0.937500 -0.937500 -0.937500
v 0.937500 -0.937500 0.937500
vt 0.234375 0.765625
vt 0.234375 1.000000
vt 0.468750 1.000000
vt 0.468750 0.765625
vt 0.468750 0.531250
vt 0.703125 0.765625
vt 0.703125 0.531250
vt 0.937500 0.765625
vt 0.937500 0.531250
vt 0.234375 0.296875
vt 0.234375 0.531250
vt 0.468750 0.296875
vt 0.000000 0.531250
vt 0.000000 0.765625
vn 0.0000 1.0000 0.0000
vn 0.0000 0.0000 1.0000
vn -1.0000 0.0000 0.0000
vn 0.0000 -1.0000 0.0000
vn 1.0000 0.0000 0.0000
vn 0.0000 0.0000 -1.0000
usemtl Material
s off
f 1/1/1 5/2/1 7/3/1 3/4/1
f 4/5/2 3/4/2 7/6/2 8/7/2
f 8/7/3 7/6/3 5/8/3 6/9/3
f 6/10/4 2/11/4 4/5/4 8/12/4
f 2/11/5 1/1/5 3/4/5 4/5/5
f 6/13/6 5/14/6 1/1/6 2/11/6
l 9 10
