# Blender 3.3.1
# www.blender.org
mtllib PuzzleMirror.mtl
o Cube
v -0.750000 -0.583333 0.125000
v -0.750000 1.416667 0.125000
v -0.750000 -0.583333 -0.125000
v -0.750000 1.416667 -0.125000
v 0.750000 -0.583333 0.125000
v 0.750000 1.416667 0.125000
v 0.750000 -0.583333 -0.125000
v 0.750000 1.416667 -0.125000
vn -1.0000 -0.0000 -0.0000
vn -0.0000 -0.0000 -1.0000
vn 1.0000 -0.0000 -0.0000
vn -0.0000 -0.0000 1.0000
vn -0.0000 -1.0000 -0.0000
vn -0.0000 1.0000 -0.0000
vt 0.000000 0.468750
vt 0.062500 0.468750
vt 0.000000 0.406250
vt 0.062500 0.937500
vt 0.000000 0.937500
vt 0.062500 0.468750
vt 0.875000 0.468750
vt 0.000000 0.468750
vt 0.062500 0.937500
vt 0.875000 0.937500
vt 0.000000 1.000000
vt 0.437500 0.468750
vt 0.500000 0.406250
vt 0.437500 0.937500
vt 0.500000 0.937500
vt 0.500000 0.468750
vt 0.500000 0.937500
vt 0.500000 1.000000
s 0
usemtl Material.001
f 1/1/1 2/5/1 4/9/1 3/6/1
f 3/7/2 4/10/2 8/17/2 7/16/2
f 7/16/3 8/17/3 6/14/3 5/12/3
f 5/12/4 6/14/4 2/4/4 1/2/4
f 3/8/5 7/16/5 5/13/5 1/3/5
f 8/18/6 4/11/6 2/5/6 6/15/6
