# Blender v3.2.0 OBJ File: 'stair1x0-5x1.blend'
# www.blender.org
mtllib stair1x0-5x1.mtl
o Cube_Cube.001
v -1.000000 0.000000 1.000000
v -1.000000 0.375000 1.000000
v -1.000000 0.000000 -1.000000
v -1.000000 0.375000 -1.000000
v 1.000000 0.000000 1.000000
v 1.000000 0.375000 1.000000
v 1.000000 0.000000 -1.000000
v 1.000000 0.375000 -1.000000
v 0.375000 0.375000 -1.000000
v 0.375000 0.375000 1.000000
v -1.000000 0.687500 1.000000
v -1.000000 0.687500 -1.000000
v 0.375000 0.687500 -1.000000
v 0.375000 0.687500 1.000000
v -0.250000 0.687500 -1.000000
v -0.250000 0.687500 1.000000
v -1.000000 1.000000 1.000000
v -1.000000 1.000000 -1.000000
v -0.250000 1.000000 -1.000000
v -0.250000 1.000000 1.000000
v -0.250000 0.000000 1.000000
v -0.250000 0.375000 1.000000
v -0.250000 0.375000 -1.000000
v -0.250000 0.000000 -1.000000
v 0.375000 0.000000 -1.000000
v 0.375000 0.000000 1.000000
vt 0.166667 1.000000
vt 0.166667 0.937500
vt 0.500000 0.937500
vt 0.500000 1.000000
vt 0.666667 0.833333
vt 0.604167 0.833333
vt 0.604167 0.708333
vt 0.666667 0.708333
vt 0.500000 0.333333
vt 0.500000 0.395833
vt 0.166667 0.395833
vt 0.166667 0.333333
vt 0.000000 0.500000
vt 0.062500 0.500000
vt 0.062500 0.604167
vt 0.000000 0.604167
vt 0.500000 -0.000000
vt 0.500000 0.125000
vt 0.166667 0.125000
vt 0.166667 -0.000000
vt 0.500000 0.500000
vt 0.166667 0.500000
vt 0.166667 0.552083
vt 0.500000 0.552083
vt 0.500000 0.656250
vt 0.166667 0.656250
vt 0.166667 0.885417
vt 0.500000 0.885417
vt 0.062500 0.833333
vt 0.062500 0.708333
vt 0.114583 0.708333
vt 0.114583 0.833333
vt 0.604167 0.604167
vt 0.552083 0.708333
vt 0.552083 0.604167
vt 0.166667 0.708333
vt 0.500000 0.708333
vt 0.500000 0.833333
vt 0.166667 0.833333
vt 0.552083 0.833333
vt 0.114583 0.604167
vt 0.000000 0.708333
vt 0.000000 0.833333
vt 0.666667 0.604167
vt 0.604167 0.500000
vt 0.666667 0.500000
vt 0.166667 0.229167
vt 0.500000 0.229167
vn -1.0000 0.0000 0.0000
vn 0.0000 0.0000 -1.0000
vn 1.0000 0.0000 0.0000
vn 0.0000 0.0000 1.0000
vn 0.0000 -1.0000 0.0000
vn 0.0000 1.0000 0.0000
usemtl Material
s off
f 1/1/1 2/2/1 4/3/1 3/4/1
f 3/5/2 4/6/2 23/7/2 24/8/2
f 7/9/3 8/10/3 6/11/3 5/12/3
f 5/13/4 6/14/4 10/15/4 26/16/4
f 3/17/5 24/18/5 21/19/5 1/20/5
f 8/10/6 9/21/6 10/22/6 6/11/6
f 14/23/6 13/24/6 15/25/6 16/26/6
f 4/3/1 2/2/1 11/27/1 12/28/1
f 2/29/4 22/30/4 16/31/4 11/32/4
f 10/22/3 9/21/3 13/24/3 14/23/3
f 9/33/2 23/7/2 15/34/2 13/35/2
f 20/36/6 19/37/6 18/38/6 17/39/6
f 12/28/1 11/27/1 17/39/1 18/38/1
f 11/32/4 16/31/4 20/36/4 17/39/4
f 16/26/3 15/25/3 19/37/3 20/36/3
f 15/34/2 12/40/2 18/38/2 19/37/2
f 16/31/4 22/30/4 10/15/4 14/41/4
f 21/42/4 22/30/4 2/29/4 1/43/4
f 15/34/2 23/7/2 4/6/2 12/40/2
f 24/8/2 23/7/2 9/33/2 25/44/2
f 25/44/2 9/33/2 8/45/2 7/46/2
f 26/16/4 10/15/4 22/30/4 21/42/4
f 26/47/5 25/48/5 7/9/5 5/12/5
f 21/19/5 24/18/5 25/48/5 26/47/5
