# Blender 3.3.1
# www.blender.org
mtllib Torch.mtl
o Cube
v -0.187500 -0.062500 0.187500
v -0.187500 0.062500 0.187500
v -0.187500 -0.062500 -0.187500
v -0.187500 0.062500 -0.187500
v 0.187500 -0.062500 0.187500
v 0.187500 0.062500 0.187500
v 0.187500 -0.062500 -0.187500
v 0.187500 0.062500 -0.187500
v 0.125000 -0.062500 -0.187500
v -0.125000 -0.062500 -0.187500
v -0.125000 0.062500 -0.187500
v 0.125000 0.062500 -0.187500
v -0.125000 -0.062500 0.187500
v 0.125000 -0.062500 0.187500
v 0.125000 0.062500 0.187500
v -0.125000 0.062500 0.187500
v -0.187500 -0.062500 -0.125000
v -0.187500 -0.062500 0.125000
v -0.187500 0.062500 0.125000
v -0.187500 0.062500 -0.125000
v 0.187500 -0.062500 0.125000
v 0.187500 -0.062500 -0.125000
v 0.187500 0.062500 -0.125000
v 0.187500 0.062500 0.125000
v 0.125000 0.062500 -0.125000
v 0.125000 0.062500 0.125000
v -0.125000 0.062500 -0.125000
v -0.125000 0.062500 0.125000
v -0.125000 -0.062500 -0.125000
v -0.125000 -0.062500 0.125000
v 0.125000 -0.062500 -0.125000
v 0.125000 -0.062500 0.125000
v -0.125000 -0.375000 -0.125000
v 0.125000 -0.375000 -0.125000
v 0.125000 -0.375000 0.125000
v -0.125000 -0.375000 0.125000
v 0.125000 0.562500 -0.125000
v -0.125000 0.562500 -0.125000
v -0.125000 0.562500 0.125000
v 0.125000 0.562500 0.125000
v 0.125000 -0.062500 -0.500000
v -0.125000 -0.062500 -0.500000
v -0.125000 0.062500 -0.500000
v 0.125000 0.062500 -0.500000
vn -1.0000 -0.0000 -0.0000
vn -0.0000 -0.0000 -1.0000
vn 1.0000 -0.0000 -0.0000
vn -0.0000 -0.0000 1.0000
vn -0.0000 -1.0000 -0.0000
vn -0.0000 1.0000 -0.0000
vt 0.187500 1.000000
vt 0.375000 0.718750
vt 0.187500 0.812500
vt 0.375000 0.781250
vt 0.187500 0.718750
vt 0.187500 0.812500
vt 0.187500 0.781250
vt 0.187500 1.000000
vt 0.375000 1.000000
vt 0.562500 0.718750
vt 0.000000 0.812500
vt 0.562500 0.781250
vt 0.375000 0.812500
vt 0.750000 0.718750
vt 0.000000 1.000000
vt 0.750000 0.781250
vt 0.781250 0.718750
vt 0.343750 0.812500
vt 1.000000 0.875000
vt 0.562500 0.812500
vt 0.156250 0.718750
vt 0.218750 0.812500
vt 1.000000 0.812500
vt 1.000000 1.000000
vt 0.156250 0.781250
vt 0.718750 0.875000
vt 0.156250 1.000000
vt 1.000000 0.875000
vt 0.781250 0.781250
vt 0.718750 1.000000
vt 0.031250 1.000000
vt 0.562500 0.875000
vt 0.218750 1.000000
vt 0.406250 0.718750
vt 0.343750 1.000000
vt 0.531250 0.718750
vt 0.031250 0.812500
vt 0.531250 0.781250
vt 0.156250 0.812500
vt 0.406250 0.781250
vt 0.187500 0.843750
vt 0.218750 0.718750
vt 0.187500 0.968750
vt 0.343750 0.718750
vt 0.187500 0.843750
vt 0.343750 0.781250
vt 0.187500 0.968750
vt 0.218750 0.781250
vt 0.375000 0.968750
vt 0.593750 0.718750
vt 0.375000 0.843750
vt 0.718750 0.718750
vt 0.000000 0.968750
vt 0.718750 0.781250
vt 0.000000 0.843750
vt 0.593750 0.781250
vt 0.031250 0.968750
vt 0.375000 0.406250
vt 0.031250 0.843750
vt 0.250000 0.406250
vt 0.156250 0.968750
vt 0.500000 0.406250
vt 0.000000 0.406250
vt 0.156250 0.843750
vt 0.125000 0.406250
vt 0.218750 0.843750
vt 0.500000 0.375000
vt 0.000000 0.375000
vt 0.218750 0.968750
vt 0.125000 0.375000
vt 0.343750 0.843750
vt 0.375000 0.375000
vt 0.343750 0.968750
vt 0.250000 0.375000
vt 0.500000 0.218750
vt 0.000000 0.218750
vt 0.375000 0.218750
vt 0.375000 0.093750
vt 0.250000 0.218750
vt 0.500000 0.093750
vt 0.125000 0.218750
vt 0.000000 0.656250
vt 0.375000 0.656250
vt 0.125000 0.656250
vt 0.500000 0.656250
vt 0.000000 0.656250
vt 0.125000 0.781250
vt 0.125000 0.656250
vt 0.000000 0.781250
vt 0.250000 0.656250
vt 0.843750 0.875000
vt 0.718750 0.812500
vt 0.843750 0.812500
vt 0.843750 1.000000
vt 0.562500 0.875000
vt 0.843750 0.875000
vt 0.562500 1.000000
vt 0.718750 0.875000
s 0
usemtl Material.001
f 17/42/1 20/48/1 4/7/1 3/5/1
f 9/17/2 12/29/2 8/16/2 7/14/2
f 21/50/3 24/56/3 6/12/3 5/10/3
f 13/34/4 16/40/4 2/4/4 1/2/4
f 32/73/5 21/49/5 5/9/5 14/35/5
f 28/64/6 19/45/6 2/3/6 16/39/6
f 24/55/6 26/59/6 15/37/6 6/11/6
f 26/59/6 28/64/6 16/39/6 15/37/6
f 18/43/5 30/69/5 13/33/5 1/1/5
f 30/69/5 32/73/5 14/35/5 13/33/5
f 5/10/4 6/12/4 15/38/4 14/36/4
f 14/36/4 15/38/4 16/40/4 13/34/4
f 3/5/2 4/7/2 11/25/2 10/21/2
f 11/26/6 12/30/6 44/97/6 43/95/6
f 10/22/5 9/18/5 31/71/5 29/66/5
f 3/6/5 10/22/5 29/66/5 17/41/5
f 17/41/5 29/66/5 30/69/5 18/43/5
f 12/31/6 11/27/6 27/61/6 25/57/6
f 8/15/6 12/31/6 25/57/6 23/53/6
f 23/53/6 25/57/6 26/59/6 24/55/6
f 11/27/6 4/8/6 20/47/6 27/61/6
f 27/61/6 20/47/6 19/45/6 28/64/6
f 9/18/5 7/13/5 22/51/5 31/71/5
f 31/71/5 22/51/5 21/49/5 32/73/5
f 7/14/3 8/16/3 23/54/3 22/52/3
f 22/52/3 23/54/3 24/56/3 21/50/3
f 1/2/1 2/4/1 19/46/1 18/44/1
f 18/44/1 19/46/1 20/48/1 17/42/1
f 33/75/5 34/77/5 35/78/5 36/80/5
f 31/72/2 34/77/2 33/75/2 29/67/2
f 32/74/3 35/79/3 34/77/3 31/72/3
f 30/70/4 36/81/4 35/79/4 32/74/4
f 29/68/1 33/76/1 36/81/1 30/70/1
f 37/82/6 38/84/6 39/87/6 40/89/6
f 27/62/2 38/85/2 37/83/2 25/58/2
f 28/65/1 39/88/1 38/86/1 27/63/1
f 26/60/4 40/90/4 39/88/4 28/65/4
f 25/58/3 37/83/3 40/90/3 26/60/3
f 42/93/2 43/96/2 44/98/2 41/92/2
f 10/23/1 11/28/1 43/96/1 42/93/1
f 9/19/5 10/24/5 42/94/5 41/91/5
f 12/32/3 9/20/3 41/92/3 44/98/3
