# Blender 3.3.1
# www.blender.org
mtllib WallButton.mtl
o Cube
v -0.468750 -0.312500 0.062501
v -0.468750 0.312500 0.062501
v -0.468750 -0.312500 -0.062500
v -0.468750 0.312500 -0.062500
v 0.468750 -0.312500 0.062501
v 0.468750 0.312500 0.062501
v 0.468750 -0.312500 -0.062500
v 0.468750 0.312500 -0.062500
vn -1.0000 -0.0000 -0.0000
vn -0.0000 -0.0000 -1.0000
vn 1.0000 -0.0000 -0.0000
vn -0.0000 -0.0000 1.0000
vn -0.0000 -1.0000 -0.0000
vn -0.0000 1.0000 -0.0000
vt 0.062500 0.625000
vt 0.062500 0.937500
vt 0.000000 0.625000
vt 0.531250 0.218750
vt 0.062500 0.562500
vt 0.000000 0.937500
vt 0.531250 0.531250
vt 0.062500 1.000000
vt 0.531250 0.625000
vt 0.531250 0.937500
vt 0.062500 0.218750
vt 0.593750 0.625000
vt 0.531250 0.562500
vt 0.062500 0.531250
vt 0.593750 0.937500
vt 0.531250 1.000000
s 0
usemtl Material.001
f 1/1/1 2/2/1 4/6/1 3/3/1
f 3/4/2 4/7/2 8/14/2 7/11/2
f 7/12/3 8/15/3 6/10/3 5/9/3
f 5/9/4 6/10/4 2/2/4 1/1/4
f 3/5/5 7/13/5 5/9/5 1/1/5
f 8/16/6 4/8/6 2/2/6 6/10/6
