# Blender v3.2.0 OBJ File: 'WallStraight.blend'
# www.blender.org
mtllib WallStraight.mtl
o Cube
v 1.000000 4.000000 0.000000
v 1.000000 0.000000 0.000000
v 1.000000 4.000000 1.000000
v 1.000000 0.000000 1.000000
v -1.000000 4.000000 0.000000
v -1.000000 0.000000 0.000000
v -1.000000 4.000000 1.000000
v -1.000000 0.000000 1.000000
vt 0.166667 0.833333
vt 0.500000 0.833333
vt 0.500000 1.000000
vt 0.166667 1.000000
vt 1.000000 0.166667
vt 1.000000 0.833333
vt 0.666667 0.833333
vt 0.666667 0.166667
vt 0.500000 0.166667
vt 0.166667 0.166667
vt 0.166667 0.000000
vt 0.500000 0.000000
vt 0.000000 0.833333
vt 0.000000 0.166667
vn 0.0000 1.0000 0.0000
vn 0.0000 0.0000 1.0000
vn -1.0000 0.0000 0.0000
vn 0.0000 -1.0000 0.0000
vn 1.0000 0.0000 0.0000
vn 0.0000 0.0000 -1.0000
usemtl Material
s off
f 1/1/1 5/2/1 7/3/1 3/4/1
f 4/5/2 3/6/2 7/7/2 8/8/2
f 8/8/3 7/7/3 5/2/3 6/9/3
f 6/9/4 2/10/4 4/11/4 8/12/4
f 2/10/5 1/1/5 3/13/5 4/14/5
f 6/9/6 5/2/6 1/1/6 2/10/6
